HIERARCHY
ROOT hip
{
  OFFSET 0 0 0
  CHANNELS 6 Xposition Yposition Zposition Zrotation Yrotation Xrotation
  JOINT abdomen
  {
    OFFSET 0 20.6881 -0.73152
    CHANNELS 3 Zrotation Xrotation Yrotation
    JOINT chest
    {
      OFFSET 0 11.7043 -0.48768
      CHANNELS 3 Zrotation Xrotation Yrotation
      JOINT neck
      {
        OFFSET 0 22.1894 -2.19456
        CHANNELS 3 Zrotation Xrotation Yrotation
        JOINT head
        {
          OFFSET -0.24384 7.07133 1.2192
          CHANNELS 3 Zrotation Xrotation Yrotation
          JOINT leftEye
          {
            OFFSET 4.14528 8.04674 8.04672
            CHANNELS 3 Zrotation Xrotation Yrotation
            End Site
            {
              OFFSET 1 0 0
            }
          }
          JOINT rightEye
          {
            OFFSET -3.6576 8.04674 8.04672
            CHANNELS 3 Zrotation Xrotation Yrotation
            End Site
            {
              OFFSET 1 0 0
            }
          }
        }
      }
      JOINT rCollar
      {
        OFFSET -2.68224 19.2634 -4.8768
        CHANNELS 3 Zrotation Xrotation Yrotation
        JOINT rShldr
        {
          OFFSET -8.77824 -1.95073 1.46304
          CHANNELS 3 Zrotation Xrotation Yrotation
          JOINT rForeArm
          {
            OFFSET -28.1742 -1.7115 0.48768
            CHANNELS 3 Zrotation Xrotation Yrotation
            JOINT rHand
            {
              OFFSET -22.5879 0.773209 7.07136
              CHANNELS 3 Zrotation Xrotation Yrotation
              JOINT rThumb1
              {
                OFFSET -1.2192 -0.487915 3.41376
                CHANNELS 3 Zrotation Xrotation Yrotation
                JOINT rThumb2
                {
                  OFFSET -3.37035 -0.52449 3.41376
                  CHANNELS 3 Zrotation Xrotation Yrotation
                  End Site
                  {
                    OFFSET -1.78271 -1.18214 1.43049
                  }
                }
              }
              JOINT rIndex1
              {
                OFFSET -7.75947 0.938293 5.60832
                CHANNELS 3 Zrotation Xrotation Yrotation
                JOINT rIndex2
                {
                  OFFSET -2.54057 -0.884171 1.56538
                  CHANNELS 3 Zrotation Xrotation Yrotation
                  End Site
                  {
                    OFFSET -1.62519 -0.234802 1.16502
                  }
                }
              }
              JOINT rMid1
              {
                OFFSET -8.24714 1.18213 3.41376
                CHANNELS 3 Zrotation Xrotation Yrotation
                JOINT rMid2
                {
                  OFFSET -3.10165 -0.590103 1.0647
                  CHANNELS 3 Zrotation Xrotation Yrotation
                  End Site
                  {
                    OFFSET -2.48547 -0.328903 0.83742
                  }
                }
              }
              JOINT rRing1
              {
                OFFSET -8.82822 0.546677 1.51678
                CHANNELS 3 Zrotation Xrotation Yrotation
                JOINT rRing2
                {
                  OFFSET -2.60934 -0.819778 -0.0198488
                  CHANNELS 3 Zrotation Xrotation Yrotation
                  End Site
                  {
                    OFFSET -2.33842 -0.294052 0.168128
                  }
                }
              }
              JOINT rPinky1
              {
                OFFSET -8.27202 -0.0477905 -0.4584
                CHANNELS 3 Zrotation Xrotation Yrotation
                JOINT rPinky2
                {
                  OFFSET -1.82734 -0.647385 -0.700984
                  CHANNELS 3 Zrotation Xrotation Yrotation
                  End Site
                  {
                    OFFSET -1.69225 -0.51767 -0.607171
                  }
                }
              }
            }
          }
        }
      }
      JOINT lCollar
      {
        OFFSET 2.68224 19.2634 -4.8768
        CHANNELS 3 Zrotation Xrotation Yrotation
        JOINT lShldr
        {
          OFFSET 8.77824 -1.95073 1.46304
          CHANNELS 3 Zrotation Xrotation Yrotation
          JOINT lForeArm
          {
            OFFSET 28.1742 -1.7115 0.48768
            CHANNELS 3 Zrotation Xrotation Yrotation
            JOINT lHand
            {
              OFFSET 22.5879 0.773209 7.07136
              CHANNELS 3 Zrotation Xrotation Yrotation
              JOINT lThumb1
              {
                OFFSET 1.2192 -0.487915 3.41376
                CHANNELS 3 Zrotation Xrotation Yrotation
                JOINT lThumb2
                {
                  OFFSET 3.37035 -0.52449 3.41376
                  CHANNELS 3 Zrotation Xrotation Yrotation
                  End Site
                  {
                    OFFSET 1.78271 -1.18214 1.43049
                  }
                }
              }
              JOINT lIndex1
              {
                OFFSET 7.75947 0.938293 5.60832
                CHANNELS 3 Zrotation Xrotation Yrotation
                JOINT lIndex2
                {
                  OFFSET 2.54057 -0.884171 1.56538
                  CHANNELS 3 Zrotation Xrotation Yrotation
                  End Site
                  {
                    OFFSET 1.62519 -0.234802 1.16502
                  }
                }
              }
              JOINT lMid1
              {
                OFFSET 8.24714 1.18213 3.41376
                CHANNELS 3 Zrotation Xrotation Yrotation
                JOINT lMid2
                {
                  OFFSET 3.10165 -0.590103 1.0647
                  CHANNELS 3 Zrotation Xrotation Yrotation
                  End Site
                  {
                    OFFSET 2.48547 -0.328903 0.83742
                  }
                }
              }
              JOINT lRing1
              {
                OFFSET 8.82822 0.546677 1.51678
                CHANNELS 3 Zrotation Xrotation Yrotation
                JOINT lRing2
                {
                  OFFSET 2.60934 -0.819778 -0.0198488
                  CHANNELS 3 Zrotation Xrotation Yrotation
                  End Site
                  {
                    OFFSET 2.33842 -0.294052 0.168128
                  }
                }
              }
              JOINT lPinky1
              {
                OFFSET 8.27202 -0.0477905 -0.4584
                CHANNELS 3 Zrotation Xrotation Yrotation
                JOINT lPinky2
                {
                  OFFSET 1.82734 -0.647385 -0.700984
                  CHANNELS 3 Zrotation Xrotation Yrotation
                  End Site
                  {
                    OFFSET 1.69225 -0.51767 -0.607171
                  }
                }
              }
            }
          }
        }
      }
    }
  }
  JOINT rButtock
  {
    OFFSET -8.77824 4.35084 1.2192
    CHANNELS 3 Zrotation Xrotation Yrotation
    JOINT rThigh
    {
      OFFSET 0 -1.70687 -2.19456
      CHANNELS 3 Zrotation Xrotation Yrotation
      JOINT rShin
      {
        OFFSET 0 -36.8199 0.73152
        CHANNELS 3 Zrotation Xrotation Yrotation
        JOINT rFoot
        {
          OFFSET 0.73152 -45.1104 -5.12064
          CHANNELS 3 Zrotation Xrotation Yrotation
          End Site
          {
            OFFSET -1.1221 -3.69964 12.103
          }
        }
      }
    }
  }
  JOINT lButtock
  {
    OFFSET 8.77824 4.35084 1.2192
    CHANNELS 3 Zrotation Xrotation Yrotation
    JOINT lThigh
    {
      OFFSET 0 -1.70687 -2.19456
      CHANNELS 3 Zrotation Xrotation Yrotation
      JOINT lShin
      {
        OFFSET 0 -36.8199 0.73152
        CHANNELS 3 Zrotation Xrotation Yrotation
        JOINT lFoot
        {
          OFFSET -0.73152 -45.1104 -5.12064
          CHANNELS 3 Zrotation Xrotation Yrotation
          End Site
          {
            OFFSET 1.1221 -3.69964 12.103
          }
        }
      }
    }
  }
}
MOTION
Frames:	4
Frame Time:	0.00833333
55.1057 85.1388 67.1621 0.0 0.0 0.0 0.41059 -0.00336424 0.0117806 0.113459 -0.00539519 0.0196593 2.54783e-15 -7.95139e-16 1.47728e-23 7.61283e-15 3.18055e-15 2.32951e-17 -0.0 0.0 0.0 -0.0 0.0 0.0 1.34048e-15 -6.0179e-18 1.49089e-16 2.86078e-14 -1.80149e-16 9.93923e-16 4.61926e-13 -1.39944e-13 -2.8625e-14 5.25177e-12 1.25607e-13 3.81667e-14 1.23912e-11 -3.16454e-14 3.81667e-14 2.13853e-11 -5.725e-14 6.36111e-14 1.2397e-11 -3.10104e-14 2.8625e-14 7.73091 5.47488 0.417314 1.23906e-11 -3.16068e-14 4.13472e-14 2.90554 0.965183 0.102902 1.2402e-11 -3.12092e-14 3.89618e-14 10.2786 0.731801 0.0259123 1.23883e-11 -3.18055e-14 5.08889e-14 2.22167 -0.733487 -0.20892 1.24381e-15 -6.40615e-18 -1.49089e-16 2.46823e-14 -1.86361e-16 -5.96354e-16 4.57751e-13 1.34378e-13 1.59028e-14 5.2558e-12 -1.53586e-13 9.54166e-15 1.23956e-11 -4.34436e-14 4.13472e-14 2.14194e-11 -7.63333e-14 7.31528e-14 1.23887e-11 -4.33351e-14 4.45278e-14 -7.73091 5.47488 -0.417314 1.23961e-11 -4.30369e-14 3.81667e-14 -2.90554 0.965183 -0.102902 1.23853e-11 -4.35338e-14 4.05521e-14 -10.2786 0.731801 -0.0259123 1.2405e-11 -4.21423e-14 3.49861e-14 -2.22167 -0.733487 0.20892 -2.03217e-16 0.0 -3.88251e-19 0.770611 -4.17183 -0.0656818 -0.00265491 2.00555 -0.0182707 -0.461836 2.16687 0.0961017 2.03217e-16 0.0 3.88251e-19 -0.143228 -2.55995 0.0260683 0.00716316 -0.91409 0.0621715 0.453767 3.47457 -0.121224
55.7353 83.2781 61.659 179.664 -3.2432 -152.632 -1.25764 -8.52356 -0.326908 0.800583 3.6101 -0.179458 -1.07414 4.57874 0.0289243 2.71389 -5.55561 0.30005 -0.0 0.0 0.0 -0.0 0.0 0.0 -9.18901e-15 -1.35227e-13 -6.29289e-14 23.3024 2.65816 -0.676382 -4.32204 -1.98453 6.72801 0.000302042 0.386631 0.054333 6.13376e-10 -1.50998e-09 1.16902e-09 1.06421e-09 -2.61237e-09 2.01935e-09 6.1338e-10 -1.50998e-09 1.16901e-09 7.73091 5.47488 0.417314 6.13374e-10 -1.50998e-09 1.16902e-09 2.90554 0.965183 0.102902 6.13383e-10 -1.50998e-09 1.16902e-09 10.2786 0.731801 0.0259123 6.13372e-10 -1.50998e-09 1.16903e-09 2.22167 -0.733487 -0.20892 -9.25818e-15 -1.35228e-13 -6.31852e-14 -21.1389 5.7975 -0.629204 3.26516 -1.33391 -5.25085 -0.00483235 1.54387 -0.216693 1.07537e-09 -2.56167e-11 -1.36304e-09 1.85047e-09 -4.74377e-11 -2.36224e-09 1.07536e-09 -2.56184e-11 -1.36303e-09 -7.73091 5.47488 -0.417314 1.07537e-09 -2.56195e-11 -1.36304e-09 -2.90554 0.965183 -0.102902 1.07536e-09 -2.56202e-11 -1.36304e-09 -10.2786 0.731801 -0.0259123 1.07538e-09 -2.56186e-11 -1.36305e-09 -2.22167 -0.733487 0.20892 -2.03217e-16 0.0 -3.88251e-19 0.36523 -11.7918 2.71458 0.00469991 4.80838 0.0536404 -0.636853 -3.1014 -1.86042 2.03217e-16 0.0 3.88251e-19 0.576912 -10.4752 -3.07265 0.00545752 2.56045 0.00297397 0.489984 1.04336 0.727211
55.7353 83.2772 61.6661 179.661 -3.2418 -152.599 -3.13463 -17.5343 -0.711448 1.5538 7.4344 -0.392877 -2.21372 9.41898 0.0601801 5.64647 -11.4282 0.626742 -0.0 0.0 0.0 -0.0 0.0 0.0 -1.95232e-14 -2.81083e-13 -1.32269e-13 48.0068 5.466 -1.3985 -8.38839 -3.99149 13.8668 -0.000178708 0.798746 0.112256 1.26813e-09 -3.16821e-09 2.43814e-09 2.20035e-09 -5.48129e-09 4.21163e-09 1.26813e-09 -3.16821e-09 2.43813e-09 7.73091 5.47488 0.417314 1.26813e-09 -3.16821e-09 2.43814e-09 2.90554 0.965183 0.102902 1.26814e-09 -3.16821e-09 2.43814e-09 10.2786 0.731801 0.0259123 1.26813e-09 -3.16821e-09 2.43815e-09 2.22167 -0.733487 -0.20892 -1.95641e-14 -2.81085e-13 -1.32481e-13 -43.3427 11.9307 -1.31322 6.4532 -2.70725 -10.8123 0.00276739 3.16728 -0.445084 2.23111e-09 -5.58807e-11 -2.85059e-09 3.83914e-09 -1.03214e-10 -4.94024e-09 2.2311e-09 -5.58842e-11 -2.85058e-09 -7.73091 5.47488 -0.417314 2.23111e-09 -5.58869e-11 -2.85059e-09 -2.90554 0.965183 -0.102902 2.2311e-09 -5.58879e-11 -2.85059e-09 -10.2786 0.731801 -0.0259123 2.23111e-09 -5.5886e-11 -2.8506e-09 -2.22167 -0.733487 0.20892 -2.03217e-16 0.0 -3.88251e-19 0.788667 -19.7776 5.88397 0.00466463 7.77083 0.130436 -1.21624 -8.65218 -3.96745 2.03217e-16 0.0 3.88251e-19 0.362925 -18.7574 -6.5951 0.0115058 6.2324 -0.0599389 0.606631 -1.5236 1.62437
55.7423 83.2757 61.6746 179.691 -3.24 -152.561 -4.92394 -25.5602 -1.10124 2.25136 10.8406 -0.587101 -3.23664 13.7362 0.0890428 8.32275 -16.6649 0.935206 -0.0 0.0 0.0 -0.0 0.0 0.0 -3.0248e-14 -4.0567e-13 -1.89085e-13 70.0969 7.97001 -2.04674 -11.5944 -5.62589 20.2738 -0.00129408 1.15989 0.163029 1.81535e-09 -4.52987e-09 3.50698e-09 3.14985e-09 -7.837e-09 6.05792e-09 1.81535e-09 -4.52987e-09 3.50696e-09 7.73091 5.47488 0.417314 1.81534e-09 -4.52986e-09 3.50697e-09 2.90554 0.965183 0.102902 1.81535e-09 -4.52986e-09 3.50697e-09 10.2786 0.731801 0.0259123 1.81534e-09 -4.52986e-09 3.50698e-09 2.22167 -0.733487 -0.20892 -3.02622e-14 -4.05672e-13 -1.89257e-13 -63.0193 17.3839 -1.96787 9.07087 -3.8675 -15.7851 0.0206333 4.63133 -0.651971 3.20131e-09 -7.67633e-11 -4.0892e-09 5.50857e-09 -1.4216e-10 -7.08686e-09 3.2013e-09 -7.67685e-11 -4.08919e-09 -7.73091 5.47488 -0.417314 3.20131e-09 -7.67725e-11 -4.0892e-09 -2.90554 0.965183 -0.102902 3.2013e-09 -7.67737e-11 -4.0892e-09 -10.2786 0.731801 -0.0259123 3.20132e-09 -7.67715e-11 -4.08921e-09 -2.22167 -0.733487 0.20892 -2.03217e-16 0.0 -3.88251e-19 1.99968 -26.7783 9.08391 -0.00200561 10.414 0.200171 -2.08875 -13.5725 -5.93137 2.03217e-16 0.0 3.88251e-19 -0.790215 -25.9921 -10.1524 0.0237619 9.50951 -0.117022 0.778543 -3.81542 2.42866
